<mxfile host="Electron" agent="Mozilla/5.0 (X11; Debian; Linux x86_64; rv:42.0) AppleWebKit/537.36 (KHTML, like Gecko) draw.io/25.0.2 Chrome/128.0.6613.186 Electron/32.2.5 Safari/537.36" version="25.0.2">
  <diagram name="Pagina-1" id="eqYnitdp8Q0_17IO5kE-">
    <mxGraphModel dx="1134" dy="1206" grid="1" gridSize="10" guides="1" tooltips="1" connect="1" arrows="1" fold="1" page="1" pageScale="1" pageWidth="827" pageHeight="1169" math="0" shadow="0">
      <root>
        <mxCell id="0" />
        <mxCell id="1" parent="0" />
        <mxCell id="3I4ZZT_joQVmpbF5oLhm-37" value="&lt;font style=&quot;font-size: 18px;&quot;&gt;Ledian support board&lt;/font&gt;&lt;div&gt;&lt;font style=&quot;font-size: 18px;&quot;&gt;&lt;br&gt;&lt;/font&gt;&lt;/div&gt;&lt;div&gt;&lt;font style=&quot;font-size: 18px;&quot;&gt;&lt;br&gt;&lt;/font&gt;&lt;/div&gt;&lt;div&gt;&lt;font style=&quot;font-size: 18px;&quot;&gt;&lt;br&gt;&lt;/font&gt;&lt;/div&gt;&lt;div&gt;&lt;font style=&quot;font-size: 18px;&quot;&gt;&lt;br&gt;&lt;/font&gt;&lt;/div&gt;&lt;div&gt;&lt;br&gt;&lt;/div&gt;" style="rounded=0;whiteSpace=wrap;html=1;" vertex="1" parent="1">
          <mxGeometry x="160" y="250" width="303" height="210" as="geometry" />
        </mxCell>
        <mxCell id="3I4ZZT_joQVmpbF5oLhm-4" value="ESP32-C6" style="rounded=0;whiteSpace=wrap;html=1;" vertex="1" parent="1">
          <mxGeometry x="220" y="330" width="194" height="100" as="geometry" />
        </mxCell>
        <mxCell id="3I4ZZT_joQVmpbF5oLhm-69" style="edgeStyle=orthogonalEdgeStyle;rounded=0;orthogonalLoop=1;jettySize=auto;html=1;entryX=0.5;entryY=0;entryDx=0;entryDy=0;exitX=0.5;exitY=0;exitDx=0;exitDy=0;endArrow=block;endFill=1;strokeWidth=4;strokeColor=#0000CC;startArrow=block;startFill=1;" edge="1" parent="1" source="3I4ZZT_joQVmpbF5oLhm-7" target="3I4ZZT_joQVmpbF5oLhm-28">
          <mxGeometry relative="1" as="geometry">
            <Array as="points">
              <mxPoint x="685" y="160" />
              <mxPoint x="525" y="160" />
            </Array>
          </mxGeometry>
        </mxCell>
        <mxCell id="3I4ZZT_joQVmpbF5oLhm-71" value="&lt;font style=&quot;font-size: 16px;&quot;&gt;USB-C - USB-C cable&lt;/font&gt;" style="edgeLabel;html=1;align=center;verticalAlign=middle;resizable=0;points=[];" vertex="1" connectable="0" parent="3I4ZZT_joQVmpbF5oLhm-69">
          <mxGeometry x="-0.0382" y="-3" relative="1" as="geometry">
            <mxPoint y="-17" as="offset" />
          </mxGeometry>
        </mxCell>
        <mxCell id="3I4ZZT_joQVmpbF5oLhm-7" value="External&amp;nbsp; &amp;nbsp; &amp;nbsp; &amp;nbsp;&amp;nbsp;&lt;div&gt;USB-C&amp;nbsp; &amp;nbsp; &amp;nbsp; &amp;nbsp;&amp;nbsp;&lt;/div&gt;" style="whiteSpace=wrap;html=1;aspect=fixed;" vertex="1" parent="1">
          <mxGeometry x="640" y="200.43" width="90" height="90" as="geometry" />
        </mxCell>
        <mxCell id="3I4ZZT_joQVmpbF5oLhm-8" value="&lt;font style=&quot;font-size: 19px;&quot;&gt;&amp;nbsp; &amp;nbsp; &amp;nbsp; &amp;nbsp; &amp;nbsp;Raspberry Pi 4&lt;/font&gt;&lt;div&gt;&lt;font style=&quot;font-size: 19px;&quot;&gt;&lt;br&gt;&lt;/font&gt;&lt;/div&gt;&lt;div&gt;&lt;font style=&quot;font-size: 19px;&quot;&gt;&lt;br&gt;&lt;/font&gt;&lt;/div&gt;" style="rounded=0;whiteSpace=wrap;html=1;points=[[0,0,0,0,0],[0,0.25,0,0,0],[0,0.5,0,0,0],[0,0.75,0,0,0],[0,1,0,0,0],[0.25,0,0,0,0],[0.25,1,0,0,0],[0.5,0,0,0,0],[0.7,1,0,0,0],[0.75,0,0,0,0],[0.8,1,0,0,0],[1,0,0,0,0],[1,0.25,0,0,0],[1,0.5,0,0,0],[1,0.75,0,0,0],[1,1,0,0,0]];fillColor=none;" vertex="1" parent="1">
          <mxGeometry x="810" y="280" width="220" height="130" as="geometry" />
        </mxCell>
        <mxCell id="3I4ZZT_joQVmpbF5oLhm-36" style="edgeStyle=orthogonalEdgeStyle;rounded=0;orthogonalLoop=1;jettySize=auto;html=1;exitX=1;exitY=0.8;exitDx=0;exitDy=0;exitPerimeter=0;entryX=0.5;entryY=0;entryDx=0;entryDy=0;endArrow=none;endFill=0;strokeColor=#FF0000;strokeWidth=2;" edge="1" parent="1" source="3I4ZZT_joQVmpbF5oLhm-13" target="3I4ZZT_joQVmpbF5oLhm-43">
          <mxGeometry relative="1" as="geometry">
            <mxPoint x="520" y="440" as="targetPoint" />
          </mxGeometry>
        </mxCell>
        <mxCell id="3I4ZZT_joQVmpbF5oLhm-22" style="edgeStyle=orthogonalEdgeStyle;rounded=0;orthogonalLoop=1;jettySize=auto;html=1;exitX=1;exitY=0.2;exitDx=0;exitDy=0;exitPerimeter=0;entryX=0;entryY=0.2;entryDx=0;entryDy=0;entryPerimeter=0;strokeWidth=2;endArrow=none;endFill=0;" edge="1" parent="1" source="3I4ZZT_joQVmpbF5oLhm-26" target="3I4ZZT_joQVmpbF5oLhm-54">
          <mxGeometry relative="1" as="geometry">
            <mxPoint x="770" y="234" as="targetPoint" />
            <Array as="points">
              <mxPoint x="790" y="234" />
              <mxPoint x="790" y="344" />
            </Array>
          </mxGeometry>
        </mxCell>
        <mxCell id="3I4ZZT_joQVmpbF5oLhm-23" style="edgeStyle=orthogonalEdgeStyle;rounded=0;orthogonalLoop=1;jettySize=auto;html=1;exitX=1;exitY=0.8;exitDx=0;exitDy=0;exitPerimeter=0;endArrow=baseDash;endFill=0;" edge="1" parent="1" source="3I4ZZT_joQVmpbF5oLhm-26">
          <mxGeometry relative="1" as="geometry">
            <mxPoint x="750" y="276.5069230769231" as="targetPoint" />
            <Array as="points">
              <mxPoint x="750" y="276.43" />
            </Array>
          </mxGeometry>
        </mxCell>
        <mxCell id="3I4ZZT_joQVmpbF5oLhm-24" style="edgeStyle=orthogonalEdgeStyle;rounded=0;orthogonalLoop=1;jettySize=auto;html=1;exitX=1;exitY=0.6;exitDx=0;exitDy=0;exitPerimeter=0;entryX=0;entryY=0.6;entryDx=0;entryDy=0;entryPerimeter=0;strokeWidth=2;strokeColor=#009900;endArrow=none;endFill=0;" edge="1" parent="1" source="3I4ZZT_joQVmpbF5oLhm-26" target="3I4ZZT_joQVmpbF5oLhm-54">
          <mxGeometry relative="1" as="geometry">
            <mxPoint x="770" y="262.03846153846155" as="targetPoint" />
            <Array as="points">
              <mxPoint x="770" y="262" />
              <mxPoint x="770" y="372" />
            </Array>
          </mxGeometry>
        </mxCell>
        <mxCell id="3I4ZZT_joQVmpbF5oLhm-25" style="edgeStyle=orthogonalEdgeStyle;rounded=0;orthogonalLoop=1;jettySize=auto;html=1;exitX=1;exitY=0.4;exitDx=0;exitDy=0;exitPerimeter=0;entryX=0;entryY=0.4;entryDx=0;entryDy=0;entryPerimeter=0;strokeWidth=2;strokeColor=#A1A1A1;endArrow=none;endFill=0;" edge="1" parent="1" source="3I4ZZT_joQVmpbF5oLhm-26" target="3I4ZZT_joQVmpbF5oLhm-54">
          <mxGeometry relative="1" as="geometry">
            <mxPoint x="770" y="248" as="targetPoint" />
            <Array as="points">
              <mxPoint x="780" y="248" />
              <mxPoint x="780" y="358" />
            </Array>
          </mxGeometry>
        </mxCell>
        <mxCell id="3I4ZZT_joQVmpbF5oLhm-26" value="&lt;div&gt;GND&lt;/div&gt;&lt;div&gt;D-&lt;/div&gt;D+&lt;div&gt;5V&lt;/div&gt;" style="rounded=0;whiteSpace=wrap;html=1;points=[[0,0,0,0,0],[0,0.25,0,0,0],[0,0.5,0,0,0],[0,0.75,0,0,0],[0,1,0,0,0],[0.25,0,0,0,0],[0.25,1,0,0,0],[0.5,0,0,0,0],[0.5,1,0,0,0],[0.75,0,0,0,0],[0.75,1,0,0,0],[1,0,0,0,0],[1,0.2,0,0,0],[1,0.4,0,0,0],[1,0.6,0,0,0],[1,0.8,0,0,0],[1,1,0,0,0]];" vertex="1" parent="1">
          <mxGeometry x="700" y="220.43" width="30" height="70" as="geometry" />
        </mxCell>
        <mxCell id="3I4ZZT_joQVmpbF5oLhm-28" value="External&amp;nbsp; &amp;nbsp; &amp;nbsp; &amp;nbsp;&amp;nbsp;&lt;div&gt;USB-C&amp;nbsp; &amp;nbsp; &amp;nbsp; &amp;nbsp;&amp;nbsp;&lt;/div&gt;" style="whiteSpace=wrap;html=1;aspect=fixed;" vertex="1" parent="1">
          <mxGeometry x="480" y="200" width="90" height="90" as="geometry" />
        </mxCell>
        <mxCell id="3I4ZZT_joQVmpbF5oLhm-29" style="edgeStyle=orthogonalEdgeStyle;rounded=0;orthogonalLoop=1;jettySize=auto;html=1;exitX=1;exitY=0.2;exitDx=0;exitDy=0;exitPerimeter=0;entryX=1;entryY=0.2;entryDx=0;entryDy=0;entryPerimeter=0;endArrow=none;endFill=0;strokeWidth=2;" edge="1" parent="1" source="3I4ZZT_joQVmpbF5oLhm-33" target="3I4ZZT_joQVmpbF5oLhm-13">
          <mxGeometry relative="1" as="geometry">
            <mxPoint x="470" y="370" as="targetPoint" />
            <Array as="points">
              <mxPoint x="620" y="234" />
              <mxPoint x="620" y="359" />
            </Array>
          </mxGeometry>
        </mxCell>
        <mxCell id="3I4ZZT_joQVmpbF5oLhm-30" style="edgeStyle=orthogonalEdgeStyle;rounded=0;orthogonalLoop=1;jettySize=auto;html=1;exitX=1;exitY=0.8;exitDx=0;exitDy=0;exitPerimeter=0;endArrow=baseDash;endFill=0;" edge="1" parent="1" source="3I4ZZT_joQVmpbF5oLhm-33">
          <mxGeometry relative="1" as="geometry">
            <mxPoint x="590" y="276.0769230769231" as="targetPoint" />
            <Array as="points">
              <mxPoint x="590" y="276" />
            </Array>
          </mxGeometry>
        </mxCell>
        <mxCell id="3I4ZZT_joQVmpbF5oLhm-31" style="edgeStyle=orthogonalEdgeStyle;rounded=0;orthogonalLoop=1;jettySize=auto;html=1;exitX=1;exitY=0.6;exitDx=0;exitDy=0;exitPerimeter=0;entryX=1;entryY=0.6;entryDx=0;entryDy=0;entryPerimeter=0;endArrow=none;endFill=0;strokeColor=#009900;strokeWidth=2;" edge="1" parent="1" source="3I4ZZT_joQVmpbF5oLhm-33" target="3I4ZZT_joQVmpbF5oLhm-13">
          <mxGeometry relative="1" as="geometry">
            <mxPoint x="570" y="262.03846153846155" as="targetPoint" />
            <Array as="points">
              <mxPoint x="600" y="262" />
              <mxPoint x="600" y="387" />
            </Array>
          </mxGeometry>
        </mxCell>
        <mxCell id="3I4ZZT_joQVmpbF5oLhm-32" style="edgeStyle=orthogonalEdgeStyle;rounded=0;orthogonalLoop=1;jettySize=auto;html=1;exitX=1;exitY=0.4;exitDx=0;exitDy=0;exitPerimeter=0;entryX=1;entryY=0.4;entryDx=0;entryDy=0;entryPerimeter=0;endArrow=none;endFill=0;strokeColor=#A1A1A1;shadow=0;flowAnimation=0;strokeWidth=2;" edge="1" parent="1" source="3I4ZZT_joQVmpbF5oLhm-33" target="3I4ZZT_joQVmpbF5oLhm-13">
          <mxGeometry relative="1" as="geometry">
            <mxPoint x="570" y="248" as="targetPoint" />
            <Array as="points">
              <mxPoint x="610" y="248" />
              <mxPoint x="610" y="373" />
            </Array>
          </mxGeometry>
        </mxCell>
        <mxCell id="3I4ZZT_joQVmpbF5oLhm-33" value="&lt;div&gt;GND&lt;/div&gt;&lt;div&gt;D-&lt;/div&gt;D+&lt;div&gt;5V&lt;/div&gt;" style="rounded=0;whiteSpace=wrap;html=1;points=[[0,0,0,0,0],[0,0.25,0,0,0],[0,0.5,0,0,0],[0,0.75,0,0,0],[0,1,0,0,0],[0.25,0,0,0,0],[0.25,1,0,0,0],[0.5,0,0,0,0],[0.5,1,0,0,0],[0.75,0,0,0,0],[0.75,1,0,0,0],[1,0,0,0,0],[1,0.2,0,0,0],[1,0.4,0,0,0],[1,0.6,0,0,0],[1,0.8,0,0,0],[1,1,0,0,0]];" vertex="1" parent="1">
          <mxGeometry x="540" y="220" width="30" height="70" as="geometry" />
        </mxCell>
        <mxCell id="3I4ZZT_joQVmpbF5oLhm-39" value="" style="rounded=0;whiteSpace=wrap;html=1;" vertex="1" parent="1">
          <mxGeometry x="170" y="264.78000000000003" width="130" height="19.57" as="geometry" />
        </mxCell>
        <mxCell id="3I4ZZT_joQVmpbF5oLhm-50" style="edgeStyle=orthogonalEdgeStyle;rounded=0;orthogonalLoop=1;jettySize=auto;html=1;entryX=0;entryY=0.5;entryDx=0;entryDy=0;strokeWidth=2;strokeColor=#FF0000;endArrow=none;endFill=0;dashed=1;dashPattern=1 1;exitX=1;exitY=0.75;exitDx=0;exitDy=0;" edge="1" parent="1" source="3I4ZZT_joQVmpbF5oLhm-42" target="3I4ZZT_joQVmpbF5oLhm-43">
          <mxGeometry relative="1" as="geometry">
            <Array as="points">
              <mxPoint x="240" y="364" />
              <mxPoint x="240" y="445" />
            </Array>
          </mxGeometry>
        </mxCell>
        <mxCell id="3I4ZZT_joQVmpbF5oLhm-42" value="" style="rounded=0;whiteSpace=wrap;html=1;" vertex="1" parent="1">
          <mxGeometry x="170" y="330" width="30" height="45" as="geometry" />
        </mxCell>
        <mxCell id="3I4ZZT_joQVmpbF5oLhm-43" value="" style="rounded=0;whiteSpace=wrap;html=1;" vertex="1" parent="1">
          <mxGeometry x="430" y="440" width="20" height="10" as="geometry" />
        </mxCell>
        <mxCell id="3I4ZZT_joQVmpbF5oLhm-47" style="edgeStyle=orthogonalEdgeStyle;rounded=0;orthogonalLoop=1;jettySize=auto;html=1;entryX=0;entryY=0.25;entryDx=0;entryDy=0;exitX=0.75;exitY=1;exitDx=0;exitDy=0;exitPerimeter=0;endArrow=none;endFill=0;strokeWidth=2;" edge="1" parent="1" source="3I4ZZT_joQVmpbF5oLhm-44" target="3I4ZZT_joQVmpbF5oLhm-42">
          <mxGeometry relative="1" as="geometry" />
        </mxCell>
        <mxCell id="3I4ZZT_joQVmpbF5oLhm-48" style="edgeStyle=orthogonalEdgeStyle;rounded=0;orthogonalLoop=1;jettySize=auto;html=1;entryX=0;entryY=0.75;entryDx=0;entryDy=0;exitX=0.25;exitY=1;exitDx=0;exitDy=0;exitPerimeter=0;endArrow=none;endFill=0;strokeWidth=2;strokeColor=#FF0000;" edge="1" parent="1" source="3I4ZZT_joQVmpbF5oLhm-44" target="3I4ZZT_joQVmpbF5oLhm-42">
          <mxGeometry relative="1" as="geometry">
            <Array as="points">
              <mxPoint x="45" y="364" />
              <mxPoint x="110" y="364" />
            </Array>
          </mxGeometry>
        </mxCell>
        <mxCell id="3I4ZZT_joQVmpbF5oLhm-44" value="5v&lt;div&gt;Power&lt;/div&gt;&lt;div&gt;Supply&lt;/div&gt;" style="whiteSpace=wrap;html=1;aspect=fixed;points=[[0,0,0,0,0],[0,0.25,0,0,0],[0,0.5,0,0,0],[0,0.75,0,0,0],[0,1,0,0,0],[0.25,0,0,0,0],[0.25,1,0,0,0],[0.5,0,0,0,0],[0.5,1,0,0,0],[0.75,0,0,0,0],[0.75,1,0,0,0],[1,0,0,0,0],[1,0.33,0,0,0],[1,0.5,0,0,0],[1,0.66,0,0,0],[1,1,0,0,0]];" vertex="1" parent="1">
          <mxGeometry x="30" y="250" width="60" height="60" as="geometry" />
        </mxCell>
        <mxCell id="3I4ZZT_joQVmpbF5oLhm-49" style="edgeStyle=orthogonalEdgeStyle;rounded=0;orthogonalLoop=1;jettySize=auto;html=1;entryX=0;entryY=0.25;entryDx=0;entryDy=0;entryPerimeter=0;endArrow=none;endFill=0;strokeWidth=2;dashed=1;dashPattern=1 1;exitX=1;exitY=0.25;exitDx=0;exitDy=0;" edge="1" parent="1" source="3I4ZZT_joQVmpbF5oLhm-42" target="3I4ZZT_joQVmpbF5oLhm-13">
          <mxGeometry relative="1" as="geometry">
            <Array as="points">
              <mxPoint x="280" y="341" />
              <mxPoint x="280" y="360" />
              <mxPoint x="390" y="360" />
              <mxPoint x="390" y="363" />
            </Array>
          </mxGeometry>
        </mxCell>
        <mxCell id="3I4ZZT_joQVmpbF5oLhm-13" value="&lt;div&gt;GND&lt;/div&gt;&lt;div&gt;D-&lt;/div&gt;D+&lt;div&gt;5V&lt;/div&gt;" style="rounded=0;whiteSpace=wrap;html=1;points=[[0,0,0,0,0],[0,0.25,0,0,0],[0,0.5,0,0,0],[0,0.75,0,0,0],[0,1,0,0,0],[0.25,0,0,0,0],[0.25,1,0,0,0],[0.5,0,0,0,0],[0.5,1,0,0,0],[0.75,0,0,0,0],[0.75,1,0,0,0],[1,0,0,0,0],[1,0.2,0,0,0],[1,0.4,0,0,0],[1,0.6,0,0,0],[1,0.8,0,0,0],[1,1,0,0,0]];" vertex="1" parent="1">
          <mxGeometry x="384" y="345" width="30" height="70" as="geometry" />
        </mxCell>
        <mxCell id="3I4ZZT_joQVmpbF5oLhm-52" style="edgeStyle=orthogonalEdgeStyle;rounded=0;orthogonalLoop=1;jettySize=auto;html=1;entryX=0.25;entryY=1;entryDx=0;entryDy=0;entryPerimeter=0;endArrow=none;endFill=0;exitX=0.75;exitY=1;exitDx=0;exitDy=0;strokeWidth=2;strokeColor=#FF0000;" edge="1" parent="1" source="3I4ZZT_joQVmpbF5oLhm-62" target="3I4ZZT_joQVmpbF5oLhm-44">
          <mxGeometry relative="1" as="geometry">
            <Array as="points">
              <mxPoint x="955" y="510" />
              <mxPoint x="45" y="510" />
            </Array>
          </mxGeometry>
        </mxCell>
        <mxCell id="3I4ZZT_joQVmpbF5oLhm-53" style="edgeStyle=orthogonalEdgeStyle;rounded=0;orthogonalLoop=1;jettySize=auto;html=1;entryX=0.5;entryY=1;entryDx=0;entryDy=0;exitX=0.75;exitY=1;exitDx=0;exitDy=0;exitPerimeter=0;strokeWidth=2;endArrow=none;endFill=0;" edge="1" parent="1" source="3I4ZZT_joQVmpbF5oLhm-44" target="3I4ZZT_joQVmpbF5oLhm-62">
          <mxGeometry relative="1" as="geometry">
            <Array as="points">
              <mxPoint x="75" y="490" />
              <mxPoint x="930" y="490" />
            </Array>
          </mxGeometry>
        </mxCell>
        <mxCell id="3I4ZZT_joQVmpbF5oLhm-61" style="edgeStyle=orthogonalEdgeStyle;rounded=0;orthogonalLoop=1;jettySize=auto;html=1;exitX=0;exitY=0.8;exitDx=0;exitDy=0;exitPerimeter=0;endArrow=baseDash;endFill=0;" edge="1" parent="1" source="3I4ZZT_joQVmpbF5oLhm-54">
          <mxGeometry relative="1" as="geometry">
            <mxPoint x="790" y="386" as="targetPoint" />
          </mxGeometry>
        </mxCell>
        <mxCell id="3I4ZZT_joQVmpbF5oLhm-54" value="&lt;div&gt;GND&lt;/div&gt;&lt;div&gt;D-&lt;/div&gt;D+&lt;div&gt;5V&lt;/div&gt;" style="rounded=0;whiteSpace=wrap;html=1;points=[[0,0,0,0,0],[0,0.2,0,0,0],[0,0.4,0,0,0],[0,0.6,0,0,0],[0,0.8,0,0,0],[0,1,0,0,0],[0.25,0,0,0,0],[0.25,1,0,0,0],[0.5,0,0,0,0],[0.5,1,0,0,0],[0.75,0,0,0,0],[0.75,1,0,0,0],[1,0,0,0,0],[1,0.2,0,0,0],[1,0.4,0,0,0],[1,0.6,0,0,0],[1,0.8,0,0,0],[1,1,0,0,0]];" vertex="1" parent="1">
          <mxGeometry x="810" y="330" width="30" height="70" as="geometry" />
        </mxCell>
        <mxCell id="3I4ZZT_joQVmpbF5oLhm-62" value="" style="rounded=0;whiteSpace=wrap;html=1;" vertex="1" parent="1">
          <mxGeometry x="880" y="390" width="100" height="10" as="geometry" />
        </mxCell>
        <mxCell id="3I4ZZT_joQVmpbF5oLhm-63" style="edgeStyle=orthogonalEdgeStyle;rounded=0;orthogonalLoop=1;jettySize=auto;html=1;entryX=1;entryY=0.2;entryDx=0;entryDy=0;entryPerimeter=0;endArrow=none;endFill=0;strokeWidth=2;dashed=1;dashPattern=1 1;" edge="1" parent="1" source="3I4ZZT_joQVmpbF5oLhm-62" target="3I4ZZT_joQVmpbF5oLhm-54">
          <mxGeometry relative="1" as="geometry">
            <Array as="points">
              <mxPoint x="870" y="390" />
              <mxPoint x="870" y="344" />
            </Array>
          </mxGeometry>
        </mxCell>
        <mxCell id="3I4ZZT_joQVmpbF5oLhm-64" style="edgeStyle=orthogonalEdgeStyle;rounded=0;orthogonalLoop=1;jettySize=auto;html=1;entryX=1;entryY=0.8;entryDx=0;entryDy=0;entryPerimeter=0;endArrow=none;endFill=0;strokeWidth=2;dashed=1;dashPattern=1 1;strokeColor=#FF0000;" edge="1" parent="1" source="3I4ZZT_joQVmpbF5oLhm-62" target="3I4ZZT_joQVmpbF5oLhm-54">
          <mxGeometry relative="1" as="geometry">
            <Array as="points">
              <mxPoint x="860" y="395" />
              <mxPoint x="860" y="386" />
            </Array>
          </mxGeometry>
        </mxCell>
        <mxCell id="3I4ZZT_joQVmpbF5oLhm-65" value="" style="rounded=0;whiteSpace=wrap;html=1;" vertex="1" parent="1">
          <mxGeometry x="320" y="264.78000000000003" width="130" height="19.57" as="geometry" />
        </mxCell>
      </root>
    </mxGraphModel>
  </diagram>
</mxfile>
